<?xml version="1.0" encoding="utf-8"?>
<!-- Generator: Adobe Illustrator 25.1.0, SVG Export Plug-In . SVG Version: 6.00 Build 0)  -->
<svg version="1.1" id="Layer_1" xmlns="http://www.w3.org/2000/svg" xmlns:xlink="http://www.w3.org/1999/xlink" x="0px" y="0px"
	 viewBox="0 0 850.39 850.39" style="enable-background:new 0 0 850.39 850.39;" xml:space="preserve">
<style type="text/css">
	.st0{fill:#231F20;}
</style>
<path class="st0" d="M228.18,321.2l96,208h69c-32.19-69.04-64.38-138.07-96.57-207.11C273.8,321.79,250.99,321.49,228.18,321.2z"/>
<polygon class="st0" points="425.42,488.57 407.01,529.2 392.18,529.2 417.65,471.74 424.41,486.38 "/>
<path class="st0" d="M500.46,322.09l-39.16,86.45c-2.72-5.85-5.45-11.71-8.19-17.56l30.54-68.89H500.46z"/>
<path class="st0" d="M507.08,516.14h-68.94l-12.72-27.57l-1.01-2.19l-6.76-14.64l-1.02-2.21L348.17,321.2
	c22.81,0.3,45.62,0.6,68.42,0.89c11.18,23.96,22.35,47.93,33.52,71.89c2.74,5.85,5.47,11.71,8.19,17.56
	C474.57,446.4,490.82,481.28,507.08,516.14z"/>
<polygon class="st0" points="513.17,529.2 605.36,321.2 622.21,321.2 528,529.2 "/>
<polygon class="st0" points="416.59,322.09 483.65,322.09 479.18,332.17 421.29,332.17 "/>
<polygon class="st0" points="517.07,520.39 513.17,529.2 407.01,529.2 411,520.39 "/>
</svg>
